<?xml version="1.0" encoding="UTF-8"?><svg id="Layer_1" xmlns="http://www.w3.org/2000/svg" viewBox="0 0 961.57 414"><defs><style>.cls-1{fill:#f79120;}.cls-2{fill:#fff;}</style></defs><path class="cls-2" d="M30.63,172.53v175.89H4.09V172.53H30.63Z"/><path class="cls-2" d="M162.48,345.8c0,5.24-.2,9.86-.52,13.84-.34,3.99-.82,7.49-1.42,10.52-1.82,8.36-5.39,15.55-10.72,21.54-10,11.57-23.82,17.32-41.34,17.32-14.81,0-27-4-36.57-12.01-9.88-8.25-15.57-19.61-17.09-34.13h25.74c1,5.47,2.63,9.69,4.91,12.65,5.31,6.9,13.07,10.36,23.24,10.36,18.76,0,28.14-11.45,28.14-34.39v-15.49c-10.18,10.4-21.91,15.6-35.2,15.6-15.1,0-27.48-5.48-37.14-16.4-9.71-11.09-14.57-24.96-14.57-41.58s4.51-29.92,13.55-41.23c9.72-12.02,22.56-18.01,38.5-18.01,13.98,0,25.59,5.19,34.86,15.61v-12.53h25.65v108.33Zm-24.61-52.57c0-10.77-2.9-19.39-8.66-25.82-5.83-6.6-13.31-9.9-22.43-9.9-9.73,0-17.4,3.6-23.02,10.8-5.08,6.45-7.63,14.8-7.63,25.02s2.55,18.35,7.63,24.79c5.54,7.06,13.22,10.59,23.02,10.59s17.54-3.57,23.24-10.7c5.22-6.44,7.86-14.7,7.86-24.79Z"/><path class="cls-2" d="M187.81,237.47h25.76v10.25c8.97-8.89,19.07-13.32,30.31-13.32,12.91,0,22.98,4.07,30.19,12.19,6.22,6.91,9.35,18.18,9.35,33.83v68.01h-25.75v-61.89c0-10.91-1.53-18.47-4.57-22.64-2.96-4.24-8.36-6.37-16.17-6.37-8.51,0-14.55,2.8-18.12,8.41-3.49,5.54-5.25,15.22-5.25,29.01v53.48h-25.76v-110.95Z"/><path class="cls-2" d="M304.89,191.32c0-4.48,1.62-8.36,4.88-11.61,3.29-3.27,7.18-4.89,11.76-4.89s8.58,1.62,11.82,4.89c3.29,3.18,4.92,7.11,4.92,11.73s-1.63,8.58-4.92,11.85c-3.17,3.26-7.09,4.9-11.71,4.9s-8.58-1.64-11.87-4.9c-3.26-3.27-4.88-7.26-4.88-11.97Zm29.49,46.15v110.95h-25.64v-110.95h25.64Z"/><path class="cls-2" d="M390.97,261.38v87.04h-25.65v-87.04h-10.95v-23.91h10.95v-40.67h25.65v40.67h19.92v23.91h-19.92Z"/><path class="cls-2" d="M422.12,191.32c0-4.48,1.62-8.36,4.9-11.61,3.26-3.27,7.17-4.89,11.74-4.89s8.58,1.62,11.84,4.89c3.26,3.18,4.9,7.11,4.9,11.73s-1.64,8.58-4.9,11.85c-3.19,3.26-7.1,4.9-11.74,4.9s-8.59-1.64-11.84-4.9c-3.28-3.27-4.9-7.26-4.9-11.97Zm29.5,46.15v110.95h-25.64v-110.95h25.64Z"/><path class="cls-2" d="M471.84,292.15c0-16.02,5.74-29.66,17.21-40.89,11.48-11.25,25.44-16.87,41.92-16.87s30.59,5.66,42.15,16.98c11.38,11.31,17.1,25.22,17.1,41.7s-5.77,30.56-17.21,41.79c-11.56,11.16-25.71,16.74-42.49,16.74s-30.58-5.68-41.82-17.09c-11.25-11.23-16.87-25.34-16.87-42.37Zm26.21,.47c0,11.05,2.96,19.86,8.89,26.3,6.07,6.52,14.08,9.8,24.04,9.8s18.05-3.22,24.04-9.69c5.99-6.45,9-15.07,9-25.87s-3.01-19.4-9-25.85c-6.07-6.54-14.1-9.8-24.04-9.8s-17.75,3.27-23.81,9.8c-6.08,6.52-9.11,14.95-9.11,25.3Z"/><path class="cls-2" d="M691.28,251.5c-3.78-5.14-7.14-9.78-10.31-14.16-4.97-1.94-10.59-2.95-16.92-2.95-11.26,0-21.35,4.43-30.32,13.32v-10.25h-25.75v110.95h25.75v-53.48c0-13.79,1.76-23.47,5.25-29.01,3.56-5.61,9.62-8.41,18.12-8.41,7.82,0,13.2,2.13,16.17,6.37,3.01,4.18,4.54,11.73,4.54,22.64v61.89h25.76v-68.01c0-5-.35-9.52-.99-13.65-4.09-5.51-7.94-10.71-11.3-15.26Z"/><path class="cls-1" d="M955.85,24.74c-2.97-6.6-7.67-11.71-14.08-15.36-6.44-3.62-13.23-5.02-20.39-4.16-7.19,.84-13.37,5.81-18.52,14.96-.97,1.68-3.44,6.84-7.43,15.52-4.02,8.66-9.13,19.61-15.3,32.87-6.15,13.23-13.15,28.15-20.95,44.71-7.83,16.56-15.9,33.98-24.23,52.24-8.36,18.27-16.77,36.69-25.29,55.32-8.35,18.25-16.31,35.57-23.82,51.94,3.6,1.54,7,3.53,10.24,5.93,15.45-22.65,31.97-46.75,49.54-72.32,17.78-25.88,34.28-50.11,49.55-72.73,15.27-22.59,28.26-41.82,38.98-57.6,10.73-15.79,16.86-25.04,18.38-27.75,5.19-9.14,6.3-16.98,3.32-23.58Z"/><path class="cls-1" d="M742.99,273.22c-4.87-19.47-8.87-35.14-11.92-47.01-3.12-12-5.72-21.5-7.75-28.5-2.02-6.98-3.62-12.11-4.8-15.37-1.19-3.27-2.33-6.06-3.43-8.34-2.62-5.49-6.49-9.08-11.58-10.76-5.11-1.68-10.55-1.12-16.34,1.65-5.8,2.77-9.65,6.68-11.54,11.69-1.92,5.03-1.55,10.29,1.05,15.78,1.11,2.29,2.55,4.92,4.35,7.9,1.79,2.97,4.77,7.46,8.95,13.42,4.16,5.96,9.93,13.92,17.3,23.88,7.35,9.95,17.17,23.01,29.41,39.24,2.05-1.33,4.16-2.56,6.31-3.57Z"/><path class="cls-1" d="M821.93,339.54c0-5.82,4.64-10.46,10.52-10.46s10.51,4.64,10.51,10.46-4.63,10.46-10.51,10.46-10.52-4.63-10.52-10.46Zm19.43,0c0-4.93-4.11-8.86-8.91-8.86s-8.9,3.93-8.9,8.86,4.09,8.85,8.9,8.85,8.91-3.92,8.91-8.85Zm-3.92,5.66h-1.94l-3.44-5.28h-1.91v5.28h-1.63v-11.45h5c2.06,0,4.07,.56,4.07,3.02,0,2.25-1.57,3.09-3.61,3.15l3.46,5.28Zm-5.38-6.9c1.43,0,3.93,.28,3.93-1.55,0-1.18-1.57-1.39-2.8-1.39h-3.04v2.94h1.91Z"/><path class="cls-1" d="M797.22,321.27c0,17.86-14.48,32.35-32.34,32.35s-32.35-14.48-32.35-32.35,14.48-32.35,32.35-32.35,32.34,14.48,32.34,32.35Z"/></svg>